<svg id="Layer_1" data-name="Layer 1" xmlns="http://www.w3.org/2000/svg" viewBox="0 0 2515.164 2575.648"><defs><style>.cls-1{fill:#61777f;}.cls-2{fill:#c9c9c9;}.cls-3{fill:#667c83;}.cls-4{fill:#687c84;}.cls-5{fill:#667b83;}.cls-6{fill:#687d84;}.cls-7{fill:#677c84;}.cls-8{fill:#242424;}.cls-9{fill:#202020;}.cls-10{fill:#1b1b1b;}.cls-11{fill:#1d1d1d;}.cls-12{fill:#343434;}.cls-13{fill:#2d2d2d;}.cls-14{fill:#2b2b2b;}.cls-15{fill:#181818;}.cls-16{fill:#141414;}.cls-17{fill:#0b0b0b;}.cls-18{fill:#cacaca;}</style></defs><path class="cls-1" d="M-2602.536,925.149l34.988,41.422c6.556-6.329,13.96-13.784,22.032-20.427.435-.357,6.48,6.1,10.1,9.568l7.306-39.262,15.522,21.783c8.52-9.48,14.989-21.979,25.006-26.349,10.261-4.476,24-.992,35.857-.992.618,1.993.94,2.791,1.11,3.62q2.519,12.3,4.995,24.6c7.951-2.839,16.678-4.446,23.657-8.832,8.6-5.4,15.745-13.123,23.627-19.935,21.557,32.207,36.013,34.628,69.642,13.1,156.782-100.363,305.641-211.7,452.188-326.24,5.068-3.962,10.214-7.825,17.324-13.265-.623,12.707-1.117,22.8-1.612,32.891l2.441.665q6.879-21.336,13.769-42.7c23.178,9.225,30.214,7.161,43.492-14.124,20.933-33.556,46.229-63.16,77.288-87.73,4.639-3.669,9.549-7,16.5-8.794-2.237,6.509-4.27,13.1-6.74,19.515-54.853,142.54-128.3,274.061-230.688,388.361-7.727,8.626-12.476,17.655-14.052,29.662-5.1,38.827-17.935,49.232-56.742,48.829-3.775-.039-7.558-.012-11.327.173-29.087,1.429-37.683,12.491-29.856,40.655-31.222-25.786-59.648-4.665-88.521,3.48-1.989.562-4.058,10.215-2.191,13.211,4.663,7.483,11.863,13.328,17.518,20.26,12.725,15.6,20.389,33,18.915,57.4l-40.767-43.832c-25.307,12.78-44.249,32.469-63.109,52.234-18.57,19.462-37.992,38.232-55.092,58.916-6.545,7.916-8.875,20.064-10.942,30.707-1.753,9.029-.361,18.667-.361,29.794-3.812,0-7.85.195-11.861-.05-4.706-.288-9.379-1.1-14.084-1.44-40.234-2.883-50.2,6.4-49.989,46.425.035,6.526.005,13.051-3.287,22.959-8.843-6.806-20.7-11.83-25.969-20.748-16.477-27.9-37.922-34.386-67.856-24.048-24.236,8.37-49.478,13.826-75.148,20.813,1.608,5.893,2.172,8.006,2.761,10.111,4.453,15.92.237,22-15.96,19.886-10.426-1.362-21.3-4.265-30.486-9.235-34.583-18.716-68.724-38.043-110.061-35.624-3.3.193-6.959-.428-9.83.79-21.016,8.918-41.011,2.782-61.733-2.164-62.446-14.9-126.076-18.353-189.886-13.993-53.143,3.633-106.1,9.907-159.15,14.97-2.287.218-4.613.027-8.853.027v-39.9c-16.235,18.139-28.461,10.933-43.2,2.626-63.647-35.868-128.059-70.384-192.375-105.055-4.21-2.27-9.948-2.443-14.959-2.374-52.865.72-100.742-13.388-141.349-48.128-21.956-18.783-47.68-25.99-75.649-27.263a321.075,321.075,0,0,0-32.57.051c-71.858,4.041-121.179-31.307-156.61-90.061-19.949-33.081-31.241-69.543-37.552-107.507-3.777-22.722-10.074-46.548-33.251-53.593-18.443-5.605-20.466-17.733-24.837-30.9-34.373-103.551-80.369-202.3-124.454-301.843-13.169-29.736-24.866-60.17-39.1-89.374-20.309-41.658-20.308-85.543-18.3-130.7a44.7,44.7,0,0,1,5.72.3c20.859,3.928,30.74-4.589,26.711-24.991-6.2-31.409-12.594-62.867-20.987-93.739C-4053.7,32.473-4083.525-30.094-4116.495-91.2c-5.113-9.477-7.122-18.1-5.175-29.268,12.79-73.35,24.427-146.9,36.783-220.328,18.924-112.457,72.084-205.072,159.516-278.752,29.51-24.868,55.859-53.5,83.526-80.537,19.7-19.256,32.755-42.524,39.828-69.025,7.013-26.274,20.78-47.756,40.706-66.489q97.475-91.639,193.475-184.837c24.47-23.867,52.3-29.039,84.518-24.624,17.649,2.419,35.731,1.616,53.61,2.442,9.2.425,13.384-3.423,17.111-12.434,21.38-51.693,58.145-86.393,114.344-97.135a89.7,89.7,0,0,1,33.66.169c14.694,2.943,27.229.493,38.568-8.451,11.1-8.756,21.909-17.915,32.427-27.363,10.881-9.776,20.561-21.023,32.118-29.86,6.844-5.233,16.3-7.048,24.586-10.4,1.808,8.634,4.535,17.2,5.16,25.92.589,8.228-1.035,16.613-1.681,24.872,2.209.264,3.427.808,3.967.417,65.861-47.7,141.892-73.649,217.03-101.5,3.092-1.146,6.534-1.67,9.293-3.343,20.428-12.386,37.728-3.992,54.288,8.152,8.361,6.132,16.12,13.079,24.261,19.52,13.266,10.494,27.707,16.136,45.7,8.657,0,19.895,1.322,38.321-.335,56.476-2.069,22.677-15.926,36.141-39.358,39.938a165.974,165.974,0,0,1-36.659,2.15c-118.885-7.489-232.617,13.462-338.92,66.743-67.78,33.972-131.745,75.5-199.155,110.275-109.292,56.385-190.818,145.452-276.288,229.78-67.669,66.765-123.094,142.831-161.11,230.739-29.479,68.165-45.432,139.474-52.826,213.185-8.613,85.866-18.452,171.612-28.479,257.326a73.161,73.161,0,0,1-10.827,30.307c-22.882,35.267-24.5,72.515-16.712,112.635,8.164,42.07,12.808,84.824,18.884,127.294.457,3.2.06,6.515.06,10.924-11.326-5.8-22.447-10.112-30.032,4.408-5.892,11.278.833,35.065,12.421,44.987,11.76,10.07,18.45-.86,27.9-7.823,7.332,16.681,14.527,32.343,21.135,48.249,9.946,23.937,19.823,47.913,29.119,72.108,18.2,47.377,44.631,89.429,80.9,124.957q131.489,128.792,263.458,257.091c36.56,35.53,74.03,70.125,110.434,105.811,7.8,7.643,15.062,10.067,25.072,7.216,18.239-5.2,39.228-4.16,50.973-23.8,7.648,17.6.1,30.566-29.469,47.1,34.552,16.827,66.2,33.618,98.969,47.849,40.6,17.634,83.932,25.082,127.911,28.052,99.559,6.723,197.522,23.079,294.29,47.175,6.549,1.63,13.986,1.186,20.768.141,45.128-6.955,90.11-14.914,135.321-21.249,14.689-2.059,27.6-5.253,37.163-17.231,2.051-2.569,4.185-5.512,6.968-6.987,18.942-10.043,24.073-26.916,22.625-48.48l12.056,8.382,4.248-1.082q-2.744-16.361-5.486-32.722Q-2603.186,925.845-2602.536,925.149ZM-3920.294,345.676l-4.184,2.63c.437,1.913.392,4.132,1.384,5.691a129.739,129.739,0,0,1,20.176,57.947c1.552,15.6,18.078,29.019,34.19,31.833-11.321-24.95-22.491-50.8-34.843-76.074C-3907.543,359.578-3914.632,352.975-3920.294,345.676Zm-13.345,56.6,2.018-1.115c-4.155-13.825-7.995-27.76-12.69-41.4-1.17-3.4-4.7-7.371-7.9-8.22-2.309-.612-7.483,2.929-8.486,5.673-1.356,3.713-1.549,9.61.572,12.521C-3951.9,381.02-3942.562,391.5-3933.639,402.273Z" transform="translate(4122.402 1287.824)"/><path class="cls-1" d="M-1608.358-253.069c-8.493,30.811-19.472,61.188-24.927,92.527-9.447,54.271-15.468,109.139-22.933,163.755-.295,2.166-.652,4.324-1.539,10.162-15.435-65.337-1.683-126.373,3.861-187.766-1.3.433-2.38.465-2.92,1.02-6.777,6.961-14.012,19.071-23.81,12.377-7.173-4.9-11.557-17.891-12.079-27.551-.738-13.675-5.16-21.955-16.3-30.231-30.751-22.846-52.655-53.715-72.127-86.321-1.693-2.835-3.3-5.72-4.917-8.6-14.664-26.165-26.308-49.8-16.835-84.168,13.928-50.541-4.454-93.925-51.472-123.728-15.273-9.681-29.751-24.814-37.8-40.859-20.06-39.984-36.786-81.8-40.543-127.236-1.037-12.542-.159-25.242-.159-39.949-5.788,2.691-10.713,4.968-15.627,7.269-10.234,4.792-20.3,9.977-30.73,14.309-16.553,6.877-31.443,4.457-46.461-6.277-87.153-62.288-173.893-125.212-262.455-185.451-58.446-39.755-119.143-76.34-180.167-112.063-13.477-7.89-32.52-6.751-49.124-8.731-46.731-5.574-90.582-18.846-127.8-48.681-10.876-8.719-21.312-19.178-28.639-30.907-21.593-34.568,1.359-77.035,42.117-79.266,25.24-1.381,50.918-7.227,76.339,6.489,9.416-28.186,30.676-33.76,57.267-32.709,45.672,1.805,91.858-2.062,137.034,3.23,69.383,8.126,133.9,34.647,196.426,65.138,81.137,39.565,153.288,91.579,210.753,161.565,22.3,27.162,39.731,58.417,58.534,88.339,64.763,103.061,128.879,206.528,193.954,309.39,10.643,16.823,17.045,33.861,19.032,53.606,7.553,75.059,16.756,149.96,23.623,225.078,2.563,28.037.414,56.506.414,84.778l5,3.154c5.511-4.531,11.725-8.449,16.358-13.748,5.854-6.7,9.827-15.058,15.793-21.627,2.986-3.288,8.6-4.193,13.02-6.176Z" transform="translate(4122.402 1287.824)"/><path class="cls-2" d="M-3172.4-400.852c28.322,4.1,54.617,9.258,81.156,11.428,34.627,2.83,66.959-9.748,98.786-20.781,34.963-12.121,69.04-12.08,103.876-1.907,13.14,3.837,25.908,5.674,39.713.669,43.07-15.615,85.119-8.031,126.943,6.708,32.066,11.3,64.6,20.49,99.432,13.194,19.664-4.119,39.642-6.735,62.238-10.485,0,14.037.147,28.32-.056,42.6-.116,8.169-.144,15,9.125,19.908,4.336,2.3,7.4,11.019,7.421,16.843q.633,173.453.216,346.908c-.022,14.88-7.946,22.618-23.04,22.656-77.89.2-155.811,1.206-233.643-.929-14.117-.387-27.8-.011-41.8.312-22.152.51-45.379,6.273-66.653-5.819-1.057-.6-3.294-.824-3.951-.178-11.978,11.8-26.977,6.341-40.533,6.454-67.973.564-135.953.275-203.93.249-22.975-.009-29.118-6.241-29.121-29.505q-.023-166.375-.053-332.75c-.007-10.558-.249-20.524,10.443-27.456,2.76-1.79,3.175-8.408,3.288-12.844C-3172.168-370.609-3172.4-385.654-3172.4-400.852Zm315.233,345.279c3.3.227,5.311.908,6.954.4,43.179-13.336,85.261-9.513,127,6.746,44.621,17.383,90.348,18.88,136.89,8.13,11.06-2.555,15-6.9,14.944-18.78-.521-103.75-.29-207.5-.33-311.256,0-4.954-.45-9.908-.7-15.122-4.028,0-6.416-.415-8.61.061-46.7,10.139-92.831,12.286-138.79-5.026-40.246-15.16-81.517-22.254-124.314-9.574-9.928,2.942-14.1,6.577-14.043,17.918.528,104.222.3,208.447.34,312.671C-2857.833-64.86-2857.409-60.315-2857.171-55.573Zm-17.624,1.941V-71.643c0-102.814-.29-205.63.36-308.439.083-13.145-4.408-17.281-16.317-20.363-39.822-10.3-78.109-5.981-116.246,7.8-39.077,14.119-79.231,19.965-120.646,12.149-10.417-1.966-20.865-3.772-33.337-6.019v253.337c0,25.94-.336,51.888.334,77.81.113,4.358,4.144,11.988,7.111,12.374,27.678,3.6,55.651,8.948,83.271,7.727,22.5-.995,44.91-9.366,66.852-16.117,31.411-9.665,62.781-16.309,95.665-9.01C-2897.781-58.183-2887.745-56.279-2874.795-53.632Zm15.93,19.435,2.83,3.867,10.625-2.418c27.129-6.183,54.345-11.9,82.1-4.147,19.029,5.313,38.211,10.345,56.752,17.078,41.623,15.117,83.227,11.641,124.893,1.351,3.74-.923,6.388-6.267,9.543-9.558-4-.7-8.149-2.45-11.988-1.933-20.439,2.756-40.7,7.329-61.211,8.915-31.254,2.418-60.24-8.746-89.143-18.669-37.017-12.708-74.22-16.65-111.92-3.836C-2851.06-41.956-2854.728-37.386-2858.865-34.2Zm-.235,22.324q1.647,1.921,3.293,3.845a7.617,7.617,0,0,0,2.711.246c41.86-12.473,83.262-12.529,124.18,4.129,6.086,2.478,12.644,3.777,18.813,6.078,40.306,15.038,81.248,13.125,122.265,4.124,6.837-1.5,18.053-1.469,14.881-15.686-6.327,1.306-11.746,2.343-17.128,3.548-31.407,7.03-63.1,11.8-94.948,4.316A493.76,493.76,0,0,1-2743.056-19c-35.1-12.966-70.07-10.621-105.152-1.163C-2852.287-19.059-2855.491-14.714-2859.1-11.873Zm-18.4,4.61,3.358-2.887c-2.388-2.79-4.479-7.655-7.212-8.047-23.926-3.429-48.249-9.729-71.895-7.911-24.387,1.875-48.483,10.862-72.094,18.6-26.523,8.7-53.387,11.794-80.809,8.773C-3124.1-.709-3141.8-4.868-3159.613-8.05l-2.527,3.9c3.721,3.033,6.99,7.638,11.232,8.855,42.744,12.265,84.986,11.1,127.695-2.447,34.169-10.838,68.148-25.893,105.778-17.376C-2904.208-12.122-2890.816-9.86-2877.5-7.263Zm-281.266-23.428-3.325,3.957c4.335,2.981,8.274,7.389,13.067,8.717,40.839,11.315,81.261,10.764,122.1-2.153,30.3-9.584,60.35-22.889,93.18-20.091,19.354,1.65,38.468,6.1,57.69,9.3l2.331-3.621c-3.923-2.91-7.432-7.153-11.835-8.521-36.564-11.359-72.577-10.275-109.268,1.959-31.459,10.49-62.962,23.837-97.366,20.2C-3114.479-23.3-3136.581-27.384-3158.765-30.691Z" transform="translate(4122.402 1287.824)"/><path class="cls-3" d="M-2151.159,226.66c-3.667,2.121-7.172,4.612-11.029,6.3-18.111,7.923-33.859,1.152-33.279-18.1.768-25.464,6.905-50.856,12.139-75.986.687-3.3,9.682-4.865,14.829-7.233.455,4.615,1.923,9.4,1.191,13.816-3.224,19.423-7.731,38.656-10.259,58.154-.644,4.96,4.265,10.639,6.623,15.988,4.575-3.377,10.918-5.774,13.431-10.3,13.27-23.881,25.284-48.276,28.586-76.158.53-4.477,8.1-8.122,12.415-12.151,2.291,4.21,7.134,8.874,6.479,12.561-6.5,36.578-13.17,73.161-21.347,109.391a449.2,449.2,0,0,1-18.755,60.573c-4.407,11.579-11.035,25.669-26.612,22.7-15.466-2.945-15.808-18.247-16.93-30.857-.746-8.391-1.314-17.387,1-25.243,1.422-4.836,8.411-8.036,12.9-11.97,2.349,4.212,6.21,8.247,6.731,12.674,1.06,9.01.317,18.232.317,27.367l6.233.961q9.171-34.746,18.337-69.495.456-2.571.923-5.134Z" transform="translate(4122.402 1287.824)"/><path class="cls-3" d="M-2462.357,87.68c-2.518,18.289-4.864,35.32-7.4,53.747,7.834,0,14.383-.642,20.768.109,31.651,3.722,45.2,31.735,24.7,56.133-12.575,14.967-31.822,24.25-47.7,36.565-5.811,4.507-10.121,10.943-15.915,15.477-4.457,3.487-10.166,5.374-15.319,7.972-1.678-4.222-5.283-8.73-4.706-12.617,2.674-18,6.86-35.772,9.85-53.735,4.92-29.55,9.8-59.123,13.748-88.812C-2482.622,89.689-2476.619,85.3-2462.357,87.68Zm-20.2,133.016,3.726,2.883c11.723-8.383,24.075-16.032,34.971-25.379,8.861-7.6,13.119-19.846,5.957-29.165-5.434-7.069-16.654-10.127-25.828-13.553-2.037-.761-8.575,3.979-9.164,6.954C-2476.711,181.737-2479.458,201.251-2482.555,220.7Z" transform="translate(4122.402 1287.824)"/><path class="cls-3" d="M-3451.7,141.5c-17.115,18.891-35.9,36.692-37.105,65.182-.3,7.008-2.525,13.913-3.241,20.929-1.179,11.548-8.1,14.679-20.8,13.85,2.44-18.968,4.5-37.4,7.268-55.718,2.033-13.468,5.565-26.721,7.349-40.212,1.556-11.771,7.361-16.493,19.815-15.119l.929,15.564c7.4-6.212,13.533-13.307,21.273-17.223,5.979-3.025,15.23-4.683,20.685-2.067,4.538,2.176,8.368,11.7,7.836,17.545-2.216,24.355-6.273,48.54-9.465,72.812-.6,4.572.322,9.4-.648,13.852-1.062,4.879-2.375,10.644-5.7,13.8-2.726,2.589-8.55,1.917-13,2.69-.78-4.683-2.706-9.506-2.152-14.025,3.264-26.647,7.157-53.215,10.687-79.83.464-3.494.064-7.1.064-10.657Z" transform="translate(4122.402 1287.824)"/><path class="cls-4" d="M-2765,140.409c-18.226,5.007-20.429,32.5-43.9,29.482,4.422-19.539,28.155-42.7,45.426-45.6,12.71-2.133,19.718,2.7,18.987,15.535-1.494,26.224-4.3,52.374-6.593,78.552-.328,3.742-2.159,7.946-1.018,11.116,4.137,11.488-3.02,14.67-11.473,15.9-11.285,1.641-8.135-7.251-8.6-13.308a26.146,26.146,0,0,0-1.29-4.111c-8.689,2.7-17.266,6.786-26.165,7.683-7.3.737-18.742.116-21.594-4.282-4.029-6.213-4.7-17.764-1.564-24.648,3.778-8.295,12.507-14.777,20.106-20.755,6.2-4.879,13.763-8.14,20.955-11.638C-2761.914,164.7-2761.53,164.142-2765,140.409Zm-3.614,40.843c-11.408,7.242-22.65,12.966-31.938,20.96-3.776,3.25-3.305,11.433-4.766,17.371,5.256.1,10.977,1.611,15.689.06C-2767.33,212.3-2764.827,207.625-2768.615,181.252Z" transform="translate(4122.402 1287.824)"/><path class="cls-3" d="M-2302.027,244.046c-.26-5.571-.476-10.206-.775-16.609-8.906,2.838-16.985,6.977-25.338,7.631-8.161.64-22.019.018-23.77-4.116-3.449-8.148-4.028-22.341,1-28.217,9.7-11.328,23.41-19.886,36.741-27.279,20.91-11.6,21.36-10.784,19.641-35.777-18.718,3.577-20.594,33.325-44.56,29.937,4.113-19.8,28.93-43.4,46.6-45.51,11.843-1.415,18.688,3.792,17.9,15.683-1.674,25.268-4.243,50.476-6.5,75.7-.374,4.179-1.649,8.357-1.47,12.49C-2281.9,243.135-2284.96,246.013-2302.027,244.046Zm4.395-64.547c-13.392,9.128-25.028,15.983-35.155,24.608-3.085,2.627-2.016,10.129-2.85,15.4,4.349.378,9.049,2.021,12.988.925C-2299.823,214.079-2296.88,209.524-2297.632,179.5Z" transform="translate(4122.402 1287.824)"/><path class="cls-5" d="M-3108.571,167.353c0-9.686.344-13.841-.068-17.919-1.038-10.282-7.455-14.973-17.285-14.63-10.5.367-16.833,7.784-14.434,16.694,2.329,8.65,8.758,17.133,15.505,23.414,7.8,7.259,19.36,10.667,26.564,18.313,5.77,6.124,10.725,16.416,9.924,24.233-.616,6.016-9.85,13.653-16.808,16.043-20.129,6.916-40.811,8.294-59.247-5.718-6.333-4.814-11.409-11.349-5.142-19.219,5.521-6.933,12.321-13.294,23.245-6.156-2.109,3.5-3.945,6.551-5.892,9.786.672,1.216,1.092,3.191,2.015,3.463,10.9,3.22,21.81,8.251,32.863,8.64,11.2.4,14.366-9.273,5.788-17.309-8.842-8.283-19.466-14.71-29.514-21.654-20.9-14.442-25.662-30.38-13.938-47.517,11.361-16.605,39.264-22.223,55.741-11.085,9.806,6.629,13.738,16.558,9.2,26.968C-3092.3,158.847-3100.26,161.5-3108.571,167.353Z" transform="translate(4122.402 1287.824)"/><path class="cls-6" d="M-3564.395,224.108h30.128l1.94,3.529c-3.921,2.894-7.7,8.046-11.788,8.308-23.463,1.508-47,1.9-70.515,2.5-1.591.041-3.218-1.365-5.645-6.095,7.994-2.222,15.9-5.783,24.005-6.3,8.536-.544,12.362-3,14.09-11.715,6.836-34.494,14.447-68.835,22.046-104.526l-32.356-5.026c9.772-10.256,72.562-18.616,90.082-10.83-10.3,4.093-17.282,8.564-24.684,9.427-12.3,1.434-15.371,7.283-17.114,19.013-4.282,28.839-10.916,57.329-16.644,85.951C-3561.756,212.867-3562.868,217.35-3564.395,224.108Z" transform="translate(4122.402 1287.824)"/><path class="cls-4" d="M-3333.9,200.393c-9.034,10.144-17.353,21.067-27.318,30.194-8.6,7.873-19.578,12.05-31.318,5.991-11.365-5.864-11.318-16.937-9.884-27.254,2.118-15.243,5.667-30.288,8.71-45.95-7,0-13.493.445-19.874-.212-2.673-.275-5.106-2.885-7.648-4.433,1.776-2.525,3.278-5.327,5.437-7.464a7.244,7.244,0,0,1,5.257-1.667c20.237,2.238,26.507-9.768,29.576-26.979,1.883-10.555,6.436-20.659,10.048-30.875,3.229-9.133,9.733-11.655,20.621-8.722l-18.224,60.226,20.627,1.168,2.061,4.5c-5.7,2.928-11.7,5.4-17.011,8.922-4.424,2.93-10.348,6.432-11.581,10.814-3.807,13.537-6.155,27.552-8.02,41.522-.521,3.9,2.584,8.293,4.026,12.46,3.91-2.143,8.421-3.64,11.588-6.582,4.8-4.462,7.97-10.894,13.151-14.686,4.766-3.487,11.274-4.593,17.015-6.749Q-3335.28,197.5-3333.9,200.393Z" transform="translate(4122.402 1287.824)"/><path class="cls-6" d="M-3054.017,163.363c-6.258,0-12.317.536-18.211-.218-3.1-.4-5.908-3.051-8.848-4.686,2.3-2.665,4.376-5.6,7.016-7.875,1.241-1.07,3.622-1.352,5.407-1.177,18.03,1.768,24.371-8.4,27.3-24.356,2.109-11.488,6.74-22.565,10.785-33.629,3.282-8.978,9.809-11.771,20.332-7.955-6.01,19.953-11.888,39.47-18.288,60.721h20.985q.973,2.22,1.948,4.44c-5.3,2.987-10.371,7.818-15.965,8.535-8.623,1.1-12.281,4.663-13.567,12.9-2.032,13.015-5.412,25.84-7.015,38.893-.532,4.327,2.654,9.11,4.141,13.685,3.885-2.2,8.343-3.776,11.522-6.732,4.808-4.469,8.023-10.868,13.227-14.633,4.814-3.483,11.352-4.581,17.131-6.73l3.438,5.772c-11.341,11.454-21.287,24.952-34.356,33.877-18.922,12.922-36.763,2.077-35.218-20.658C-3061.119,196.855-3056.925,180.385-3054.017,163.363Z" transform="translate(4122.402 1287.824)"/><path class="cls-5" d="M-3245.078,206.845c-12.009,13.676-23.791,26.37-40.8,32-18.013,5.964-33.186-4.007-35.841-23.343-1.2-8.777-.2-17.855-.2-27.272l-11.085-3.336c.2-2.259-.095-4.563.492-4.814,16.671-7.145,20.171-24.506,29.471-37.385,17.069-23.641,41.19-22.916,58.229.624,6.026,8.325,3.561,12.886-4.472,16.193-12.2,5.022-24.3,10.662-36.979,14.036-11.8,3.14-16.257,9.627-15.368,21.057.109,1.4-.429,2.946-.03,4.226,2.7,8.677,5.581,17.3,8.4,25.943,7.542-4.07,15.694-7.329,22.461-12.427C-3263.368,206.746-3257.426,198.624-3245.078,206.845Zm-20.322-55.154.938-4.791c-5.517-2.119-12.991-7.525-16.13-5.655-6.007,3.578-9.548,11.294-14.112,17.293l3.1,2.578Z" transform="translate(4122.402 1287.824)"/><path class="cls-5" d="M-2902.995,207.631c-12.759,10.3-22.773,20.458-34.634,27.514-21.962,13.065-42.155,1.936-44.439-23.438-.672-7.465-.1-15.043-.1-22.912l-12.215-4.5c2.639-3.656,4.087-8,6.637-8.786,10.41-3.228,13.55-11.548,17.594-20.28,3.488-7.53,8.465-15.088,14.639-20.528,21.4-18.855,42.537-6.9,53.15,13.379,1.087,2.077-4,9.782-7.779,11.569a254.911,254.911,0,0,1-38.214,14.7c-9.441,2.715-13.19,7.754-12.769,16.972.085,1.876-.677,3.9-.21,5.631,2.491,9.231,5.247,18.39,7.912,27.574,7.906-4.213,16.481-7.543,23.532-12.884C-2922.675,206.178-2916.8,199.277-2902.995,207.631Zm-51.738-45.372,31.038-11.041C-2937.695,134.408-2944.451,136.564-2954.733,162.259Z" transform="translate(4122.402 1287.824)"/><path class="cls-5" d="M-2216.51,146.3c-13.695,8.691-24.494,18.705-26.32,34.917-1.635,14.506-3.38,29.014-4.395,43.569-.653,9.363-5.716,14.5-14.189,14.109-10.63-.5-7.228-9.678-6.349-15.319,4.607-29.545,9.874-58.987,15-88.451,2.006-11.539,9.4-15.33,21.195-14.093.192,3.955.365,7.513.567,11.654,1.618-.461,2.937-.532,3.893-1.157,8.927-5.835,18.345-15.8,29-7.8,10.933,8.211,2.232,20.012-.165,29.97-2.768,11.5-6.529,22.938-24.15,19.911C-2220.315,163.852-2218.412,155.077-2216.51,146.3Zm.339-3.058.515-1.02-.888-.06Z" transform="translate(4122.402 1287.824)"/><path class="cls-7" d="M-2697.363,131.5c9.649-4.964,20.309-17.017,29.809-6.934,4.9,5.2,1.06,19.741-.62,29.761-1.83,10.911-5.815,21.389-22.64,19.674,1.216-8.566,2.4-16.915,4.145-29.184-13.339,9.509-22.128,18.479-24.416,31.758-2.626,15.252-3.209,30.853-5.8,46.114-.89,5.247-3.947,11.837-8.12,14.449-7.7,4.82-14.471,2.16-12.815-8.372,5.088-32.34,10.337-64.675,16.831-96.748.916-4.518,8.977-7.819,14.195-10.9.552-.325,4.248,4.678,6.49,7.212q-.521,2.544-1.052,5.083Zm11.538,13.194-.972-.941-.909,1,1.415.953C-2686.142,145.377-2685.994,145.047-2685.825,144.7Z" transform="translate(4122.402 1287.824)"/><path class="cls-3" d="M-2367.737,172.028q3.263-13.425,6.526-26.85c-12.845,8.657-24.264,17.961-26.456,33.8-2.128,15.372-4.185,30.8-5.185,46.266-.639,9.872-6.373,13.913-14.37,13.242-2.339-.2-6.186-9.236-5.555-13.685,4.262-30.087,9.532-60.031,14.516-90.015.229-1.377.422-3.277,1.345-3.935,4.965-3.543,9.913-7.4,15.482-9.556,1.054-.409,4.884,6.337,7.657,10.084,5.423-2.842,11.313-6.906,17.832-9.126,11.011-3.752,18.142,1.634,16.417,13.091-1.593,10.574-4.35,21.417-9.1,30.886-2.389,4.765-10.339,6.742-15.774,9.979Z" transform="translate(4122.402 1287.824)"/><path class="cls-5" d="M-3200.082,130.928c4.262-2.25,10.13-6.315,16.626-8.565,11.608-4.02,18.609,1.639,16.633,14.072-1.605,10.1-4.254,20.484-8.9,29.473-2.5,4.844-10.165,7.023-15.5,10.405l-3.648-3.164,6.338-28.2c-12.61,5.845-24.653,21.112-26.343,33.642-2.074,15.372-4.281,30.775-5.2,46.237-.581,9.766-5.886,14.209-13.979,13.63-2.41-.172-6.542-9.217-5.912-13.63,4.352-30.515,9.2-60.994,15.368-91.181,1.032-5.05,8.923-9.285,14.5-12.333C-3208.958,120.688-3203.982,127.084-3200.082,130.928Z" transform="translate(4122.402 1287.824)"/><path class="cls-5" d="M-2565.33,93.831c-9.52,41.531-18.664,81.419-28.427,124.007,20.183-4.3,36.213,1.262,49.74,15.41-6.414,7.782-13.582,11.036-21.852,4.076-12.195-10.262-23.03-10.131-34.7,1.134-3.532,3.409-9.948,3.831-18.144,6.711,1.923-9.9,3.006-16.605,4.546-23.209,8.78-37.637,17.815-75.215,26.429-112.889C-2585.175,97.869-2579.922,91.5-2565.33,93.831Z" transform="translate(4122.402 1287.824)"/><path class="cls-3" d="M-2826.039,92.85c-5.018,44.351-10.164,89.776-15.292,135.2-1.065,9.433-7.453,13.332-15.631,12.124-2.051-.3-4.556-8.764-4.082-13.179q6.928-64.663,15.114-129.187c.626-4.923,3.536-11.014,7.387-13.764C-2830.573,78.354-2825.592,81.917-2826.039,92.85Z" transform="translate(4122.402 1287.824)"/><path class="cls-7" d="M-2863.23,89.735c-5.465,47.919-10.32,92.4-15.919,136.781-.592,4.687-4.609,10.61-8.721,12.807-6.685,3.571-13.218,2.591-11.91-8.12,5.592-45.81,10.708-91.686,17.183-137.37.651-4.589,9.308-8.043,14.25-12.023Z" transform="translate(4122.402 1287.824)"/><path class="cls-3" d="M-2538.688,239.261c3.627-24.591,7.069-48.132,10.585-71.662,1.526-10.217,1.86-20.9,5.352-30.419,1.9-5.168,9.283-8.321,14.193-12.384,1.4,4.688,4.527,9.61,3.926,14.026-3.919,28.843-8.981,57.531-12.951,86.368C-2519.274,237.464-2525.794,240.6-2538.688,239.261Z" transform="translate(4122.402 1287.824)"/><path class="cls-8" d="M-2475.632,404.6h-41.993V368.172h40.018q.136,1.989.275,3.978c-5.876.4-11.777.574-17.619,1.258-4.956.582-9.843,1.75-14.761,2.658l.927,5.072,23.623,1.363q.12,2.334.241,4.669c-4.389.668-8.866,1-13.141,2.1-3.866,1-7.512,2.853-11.255,4.329,3.949,1.713,7.764,4.334,11.876,4.94,7.23,1.065,14.641.9,21.976,1.246Q-2475.549,402.193-2475.632,404.6Z" transform="translate(4122.402 1287.824)"/><path class="cls-9" d="M-3107.8,404.162c5.583-11.116,10.774-22.454,16.895-33.266,3.779-6.676,13.957-5.909,17.812,1.231a257.523,257.523,0,0,1,15.074,33.517c-16.481-9.413-32.509-13.342-48.1,2.693Q-3106.954,406.249-3107.8,404.162Z" transform="translate(4122.402 1287.824)"/><path class="cls-10" d="M-2584.761,382.41c-1.44,8.982-2.647,16.515-3.854,24.049l-4.971-.908V375.812c13.75,0,27.719-.6,41.57.413,3.544.259,8.778,5.129,9.615,8.723,1.555,6.678.446,13.977.446,21.8-16.234-2.895,2.611-29.665-20.813-24.007-1.048,8.264-2.025,15.962-3.2,25.212C-2578.316,400.747-2562.787,378.314-2584.761,382.41Z" transform="translate(4122.402 1287.824)"/><path class="cls-11" d="M-2325.132,376.339h13.318c2.122,5.353,4.418,11.143,6.211,15.665l12.362-16.217,13.131,16.67c1.159-3.716,1.718-8.419,4.038-11.974,1.68-2.574,5.7-3.624,12.055-7.323-3.8,10.717-5.559,17.479-8.6,23.607-1.8,3.618-5.616,6.232-8.526,9.3-2.723-3.125-5.649-6.1-8.09-9.433-1.335-1.822-1.85-4.246-2.751-6.44-.965.3-2.023.29-2.42.8-3.877,4.969-7.643,10.024-11.441,15.055-3.519-5.515-6.635-11.355-10.715-16.417-2.275-2.824,2.2-13.837-8.321-7.592Z" transform="translate(4122.402 1287.824)"/><path class="cls-12" d="M-2940.37,383.913c.707,8.5-3.03,11.971-11.6,10.9-4.413-.552-8.953-.1-13.435-.1q-.067,1.853-.134,3.706l24.178,1.334c-12.92,9.309-25.589,6.8-38.248,1.862-.006,0,.173.8.173.8,1.071-3.386,1.957-6.845,3.254-10.143,2.161-5.5,4.58-15.52,6.9-15.523,9.925-.011,23.026-7.717,28.906,7.792C-2940.369,384.55-2940.37,383.913-2940.37,383.913Z" transform="translate(4122.402 1287.824)"/><path class="cls-13" d="M-2435.822,381.14c8.016-1.822,15.951-4.25,24.065-5.326,12.5-1.656,17.511,4.25,14.329,18.465h-23.85q-.108,1.915-.215,3.831l24.944,2.307-.108,5.391c-9.039,0-18.244.976-27.028-.522-3.132-.534-5.792-6.813-7.666-10.925-2.011-4.409-2.843-9.355-4.195-14.069C-2435.55,380.289-2435.822,381.14-2435.822,381.14Z" transform="translate(4122.402 1287.824)"/><path class="cls-13" d="M-2736.418,393.814-2764.4,395.2l.017,3.318,24.919,1.4q-.124,3.013-.25,6.029c-10.742-.88-22.142-.038-31.809-3.73-2.751-1.052-3.588-19.881.207-22.463,6.577-4.476,17.69-4.1,26.4-2.687C-2741.662,377.6-2739.807,386.729-2736.418,393.814Z" transform="translate(4122.402 1287.824)"/><path class="cls-14" d="M-2144.111,380.644c9.689-1.354,19.434-3.813,29.028-3.323,2.562.132,4.662,9.282,8.178,16.9h-27.6l-.217,3.963c3.883.355,7.762.75,11.648,1.053,4.34.339,8.686.593,16.474,1.114-27.572,13.517-38.443,6.65-37.536-19.634Z" transform="translate(4122.402 1287.824)"/><path class="cls-13" d="M-2185.409,394.876h-23.066l-.255,3.2,25.067,2.337-.468,5.949c-10.985-1.176-22.514-.87-32.572-4.565-2.534-.93-3.306-19.225.283-21.547,6.814-4.407,17.577-4.544,26.259-3.324,3.476.488,5.787,9.253,8.629,14.25Z" transform="translate(4122.402 1287.824)"/><path class="cls-15" d="M-3483.7,379.881c9.877-.909,21.292-5.131,29.073-1.521,4.9,2.272,4.354,16.274,6.486,26.093-9.707.518-17.083,1.944-24.112.939-5.053-.721-9.642-4.687-14.438-7.2,3.845-3.6,7.646-7.245,11.567-10.758.926-.83,2.257-1.208,5.014-2.621-5.406-2.11-9.457-3.691-13.51-5.276Zm24.625,6.649.012-2.981h-9.716l-.008,2.981Z" transform="translate(4122.402 1287.824)"/><path class="cls-9" d="M-2940.37,383.913s0,.637-.006.635c11.684-10.228,25.062-10.59,42.709-6.935l-12.8,7.122c2.088,1.163,4.029,1.587,4.727,2.754,2.35,3.929,5.479,8.037,5.777,12.255.132,1.868-5.65,5.609-9.023,5.978-8.124.887-16.41.287-24.631.287q-.189-2.635-.379-5.272l27.139-2.717Zm17.425,1.737c-.277-.293-.6-.865-.822-.827a8.17,8.17,0,0,0-1.776.724c.278.293.6.86.826.825A6.866,6.866,0,0,0-2922.945,385.65Z" transform="translate(4122.402 1287.824)"/><path class="cls-8" d="M-2892.147,400.319l25.628-1.882q.139-1.893.278-3.787c-5.236-.45-10.758-.029-15.618-1.624-3.968-1.3-7.146-5.012-10.675-7.654,3.5-3.21,6.594-8.342,10.605-9.206,7.043-1.518,14.649-.424,20.988-.424.91,5.9.943,10.368,2.345,14.35,3.3,9.385,2.355,15.777-9.376,15.988-8.026.144-16.056.028-24.085.028Zm29.554-16.108c-1.544-.751-2.681-1.752-3.769-1.7-1,.046-1.941,1.229-2.908,1.911,1.256.821,2.432,2,3.8,2.305C-2864.821,386.869-2863.8,385.322-2862.593,384.211Zm-18.334,1.635-.921-1.563c-.3.288-.888.648-.838.85a8.1,8.1,0,0,0,.853,1.719Z" transform="translate(4122.402 1287.824)"/><path class="cls-16" d="M-3240.492,382.6l-24.741-1.4-.165-4.1c9.853,0,22.024-3.463,28.825,1.092,5.473,3.664,4.449,17.027,6.368,26.383-10.362.494-17.946,2.037-25.034.781-4.76-.843-8.816-5.651-13.188-8.685,4.438-3.039,8.519-7.1,13.421-8.809,4.272-1.486,9.47-.309,14.259-.309Z" transform="translate(4122.402 1287.824)"/><path class="cls-8" d="M-2259.237,405.945V362.479l3.915-.836q2.378,6.891,4.756,13.788c26.936.954,31.154,6.565,18.948,31.09-1.11-7.677-2.218-15.354-3.448-23.866h-15.726c-1.142,7.6-2.372,15.779-3.6,23.961Z" transform="translate(4122.402 1287.824)"/><path class="cls-8" d="M-3127.62,381.129l-11.2,1.785q-.1,1.154-.2,2.308c2.611.866,6.082.984,7.636,2.769,2.445,2.808,4.591,6.643,4.935,10.229.211,2.195-3.04,6.66-4.974,6.8-9.779.7-19.637.324-29.467.324l-.115-5.266,24.951-1.3.8-3.909c-4.929-.522-10.2-.131-14.689-1.83-4.273-1.618-7.721-5.416-11.531-8.256,3.706-3.016,7.06-7.845,11.2-8.65,7.318-1.423,15.112-.4,22.706-.4Zm-21.9,4.488c-.35-.318-.7-.857-.946-.815a8.092,8.092,0,0,0-1.8.739c.284.292.613.86.846.824A8.9,8.9,0,0,0-3149.517,385.617Z" transform="translate(4122.402 1287.824)"/><path class="cls-9" d="M-3547.852,375.545c25.169.718,26.248.842,24.312,17.709-3.031,26.393-23.792,4.28-35.915,16.257,0-14.424-.382-24.165.184-33.851.234-3.986,2.509-7.852,3.855-11.773C-3553.2,367.306-3550.978,370.726-3547.852,375.545Zm-2.8,23.329h17.744V381.433l-17.744,1.01Z" transform="translate(4122.402 1287.824)"/><path class="cls-10" d="M-2707.675,373.282c3.666,17.153,20.044,2.933,26.9,14.988l-24.326,2.17a9.732,9.732,0,0,0-1.443,1.972c-1.885,4.473-3.683,8.982-5.511,13.479-1.32-4.894-3.383-9.728-3.791-14.7-.642-7.826-.171-15.743-.171-23.74h39.966l1.065,4.2c-4.854.542-9.7,1.322-14.565,1.562C-2695.1,373.492-2700.682,373.282-2707.675,373.282Z" transform="translate(4122.402 1287.824)"/><path class="cls-9" d="M-2636.95,381.075c10.42-1.368,20.865-3.537,31.229-3.2,1.47.048,3.592,12.323,3.343,18.859-.119,3.119-4.648,8-7.941,8.756-23,5.261-28.376-.073-26.569-25.051Zm8.644,17.962h17.078V382.712h-17.078Z" transform="translate(4122.402 1287.824)"/><path class="cls-16" d="M-2325.132,376.339q.125,2.849.25,5.7c-4.359,9.258-8.189,18.814-13.214,27.694-5.806,10.26-14.548,10.374-24.354,3.4l16.982-3.033c-4.119-10.369-7.844-19.746-11.57-29.123q.389-2.342.778-4.684c5.468,5.928,10.936,11.856,15.508,16.811Z" transform="translate(4122.402 1287.824)"/><path class="cls-16" d="M-2831.827,408.37v-43.7l3.6-1.651c2.119,4.127,4.239,8.255,6.452,12.561,25.4.7,26.086.747,24.949,16.229C-2798.893,419.961-2820.746,397.442-2831.827,408.37Zm8.286-9.583c19.825,2.67,20.892,1.6,16.909-16.522h-16.909Z" transform="translate(4122.402 1287.824)"/><path class="cls-10" d="M-3303.464,361.333c.715,5.772,1.216,9.815,1.694,13.68,8.608,4.737,22.64-6.492,26.6,8.369,1.882,7.071-.708,15.333-1.273,23.055l-5.643-.5c-.561-7.666-1.122-15.331-1.724-23.552h-17.935c-.452,7.891-.893,15.591-1.36,23.73C-3313.516,401.127-3314.237,369.479-3303.464,361.333Z" transform="translate(4122.402 1287.824)"/><path class="cls-16" d="M-3410.139,379.605c14.58-3.724,8.583,12.41,15.678,15.77,4.549-6.862,9.286-14.009,14.022-21.155l3.375,2.422c-9.124,31.885-22.939,52.463-39.049,36.422l17.517-3.143-11.615-28.471A2.2,2.2,0,0,0-3410.139,379.605Z" transform="translate(4122.402 1287.824)"/><path class="cls-17" d="M-3342.019,373.841l-17.022-1.819.118-3.2h42.565q.267,1.433.532,2.864l-17.353,2.451c0,8.47.265,17.182-.2,25.855-.106,1.982-2.727,3.83-4.191,5.739-1.483-1.9-4.133-3.732-4.246-5.71C-3342.294,391.656-3342.019,383.248-3342.019,373.841Z" transform="translate(4122.402 1287.824)"/><path class="cls-8" d="M-2979.436,402.422s-.179-.8-.173-.8c-11.179.47-22.364.964-33.552,1.4-2.08.081-4.168-.071-6.253-.116l0-.339c1.644-2.623,4.59-5.183,4.722-7.88.934-19.229.752-19.289,19.745-18.878,4.28.093,8.55.684,12.825,1.045q.012,2.112.022,4.224l-22.677,1.449V397.68Z" transform="translate(4122.402 1287.824)"/><path class="cls-9" d="M-3619.474,404.309a17.321,17.321,0,0,1-.508-2.885c-.035-10.821-.022-21.643-.022-32.434,8.994-1.553,9.019-1.553,9.1,9.213.05,6.5.009,12.991.009,19.73l28.882,2.012q-.052,2.182-.1,4.364Z" transform="translate(4122.402 1287.824)"/><path class="cls-9" d="M-3019.417,402.562l0,.339c-5.36,1.073-10.691,2.863-16.086,3.085-16.96.7-22.968-7.5-17.593-23.754.772-2.332,3.314-5.632,5.228-5.767,8.8-.618,17.679-.272,26.528-.272q.079,2.365.161,4.732h-22.989v16.662Z" transform="translate(4122.402 1287.824)"/><path class="cls-15" d="M-2435.822,381.14s.272-.851.276-.848c-2.977,5.829-5.467,11.991-9.119,17.362-2.308,3.394-6.09,7.183-9.712,7.786-2.319.386-6.377-4.24-8.2-7.446-3.688-6.481-6.386-13.526-10.189-21.867,15.4-1.383,12.053,13.359,19.564,20.095,2.419-5.486,4.3-10.821,7.033-15.681C-2442.692,374.351-2438.757,372.182-2435.822,381.14Z" transform="translate(4122.402 1287.824)"/><path class="cls-17" d="M-3218.569,367.812l19.24,12.156-13.54,2.876v15.433l12.066,3.131c-13.522,8.1-20.228,5.147-20.747-8.879C-3221.872,383.838-3230.738,373.467-3218.569,367.812Z" transform="translate(4122.402 1287.824)"/><path class="cls-8" d="M-2144.111,380.644l-.026.071c-5.116.333-10.579-.327-15.234,1.31-3.605,1.266-7.755,4.908-8.864,8.386-1.516,4.757-.378,10.36-.378,15.6l-6.751.471c-.854-9.549-1.707-19.1-2.916-32.63Z" transform="translate(4122.402 1287.824)"/><path class="cls-8" d="M-2636.95,381.075l.062-.636-23.988,2.315c-.625,7.877-1.226,15.458-1.827,23.039-11.97-8.065-5.854-19.015-8.079-32.216Z" transform="translate(4122.402 1287.824)"/><path class="cls-14" d="M-3410.139,379.605a2.2,2.2,0,0,1-.072,1.845h-23.066c-1.014,9.105-1.891,16.974-2.767,24.842l-5.668.2c-.718-9.629-1.436-19.259-2.4-32.172Z" transform="translate(4122.402 1287.824)"/><path class="cls-16" d="M-3483.7,379.881l.08-.349c-7.354,1.054-14.711,2.105-23.405,3.347-.285,3.322-.613,7.393-.992,11.46-.36,3.869-.772,7.733-1.162,11.6l-5.84.235c-.51-9.685-1.021-19.369-1.685-31.975Z" transform="translate(4122.402 1287.824)"/><path class="cls-10" d="M-2789.241,364.371c9.392,1.833,10.979,11.875,7.175,40.447C-2789.716,403.066-2789.716,403.066-2789.241,364.371Z" transform="translate(4122.402 1287.824)"/><path class="cls-15" d="M-3178.747,366.621c3.681.634,7.692.931,7.71,1.385q.7,17.891.434,35.809c-.01.7-4.062,2.294-4.417,1.887-1.6-1.834-3.485-4.2-3.566-6.444C-3178.953,389.06-3178.747,378.842-3178.747,366.621Z" transform="translate(4122.402 1287.824)"/><path class="cls-10" d="M-2356.26,376.291q-.39,2.341-.778,4.684l-23.774,1.274c-.422,7.676-.842,15.332-1.274,23.2-9.008-3.041-9.008-3.041-7.154-29.154Z" transform="translate(4122.402 1287.824)"/><path class="cls-7" d="M-2520.263,114.572c1.249-17.82,3.931-20.413,18.418-18.745C-2500.5,112-2504.386,116.16-2520.263,114.572Z" transform="translate(4122.402 1287.824)"/><path class="cls-16" d="M-2843.493,375.2c.881,4.257,2.532,8.526,2.46,12.767-.106,6.2-1.447,12.382-2.261,18.571l-5.062-.9V376.926Z" transform="translate(4122.402 1287.824)"/><path class="cls-1" d="M-1608.192-252.928l.81-1.477c.044.289.222.731.1.836a3.938,3.938,0,0,1-1.08.5Z" transform="translate(4122.402 1287.824)"/><path class="cls-1" d="M-2603.851,926.526l-.909-2.94q1.112.783,2.224,1.563Q-2603.187,925.845-2603.851,926.526Z" transform="translate(4122.402 1287.824)"/><path class="cls-2" d="M-2604.987-355c7.027,17.169-4.625,18.169-14.124,19.392-32.96,4.243-65.142,1.882-96.993-9.207-30.05-10.462-60.3-21.869-93.239-18.689-7.821.755-15.614,1.813-23.583,2.751-4.591-10.778-2.63-16.388,9.043-18.359,31.668-5.344,61.829.882,91.172,11.709,33.619,12.405,67.943,18.392,103.714,15.2C-2621.129-352.9-2613.3-354.022-2604.987-355Z" transform="translate(4122.402 1287.824)"/><path class="cls-2" d="M-2833.15-204.561c-5.9-17.312,4.214-18.179,14.559-20.218,26.953-5.313,52.112,2.027,77.14,10.078,35.451,11.406,70.845,22.654,108.917,18.333,9.171-1.041,18.359-1.929,27.724-2.907,3.9,11.117,2.715,16.337-9.7,17.967-36.028,4.731-71.138,2.865-105.525-9.551C-2756.533-204.038-2793.491-214.321-2833.15-204.561Z" transform="translate(4122.402 1287.824)"/><path class="cls-2" d="M-2604.581-315.828c2.988,11.038,3,16.336-9.269,17.99-35.129,4.737-69.309,3.653-102.953-8.654-15.44-5.647-31.2-11.514-47.319-13.946-22.322-3.369-45.119-3.594-69.512-5.29-3.921-10-1.429-12.518,12.468-15.3,32.087-6.432,61.54,3.437,90.915,13.2,31.084,10.334,62.3,18.422,95.429,15.268C-2625.069-313.49-2615.337-314.658-2604.581-315.828Z" transform="translate(4122.402 1287.824)"/><path class="cls-2" d="M-2604.086-277.233c3.723,13.829-1.293,16.752-13.493,19.075-44.162,8.409-84.746-4.381-125.527-17.607-25.645-8.317-51.316-15.252-78.79-8.911-3.755.866-11.551-2.618-12.583-5.717-2.52-7.57,3.422-9.4,10.384-11.03,33.955-7.966,65.073,3.5,96.46,13.067,26.52,8.087,52.652,17.95,81.138,15.408C-2632.554-274.191-2618.64-275.752-2604.086-277.233Z" transform="translate(4122.402 1287.824)"/><path class="cls-2" d="M-2604.6-121.764c2.778,15.97.8,16.356-13.872,19.143-47.2,8.965-90.214-7-133.65-20.609-23.785-7.454-47.565-11.011-72.227-5.4-2.626.6-5.56-.155-8.862-.3-3.36-9.536-3.831-14.7,9.345-17.117,27.461-5.041,53.04.36,79.173,7.408,30.261,8.159,60.794,15.977,91.7,20.8C-2637.746-115.468-2621.4-120.173-2604.6-121.764Z" transform="translate(4122.402 1287.824)"/><path class="cls-2" d="M-2833.3-165.451c-4.145-12.67-.544-17.188,11.112-19.894,35.808-8.313,68.15,5.186,100.488,15.546,33.861,10.847,67.368,17.094,102.678,10.458,4.486-.843,9.267-.116,14.354-.116,3.675,11.051,1.339,15.155-10.519,17.3-39.9,7.2-77.614-.408-115.054-13.142C-2763.745-166.7-2797.5-176.936-2833.3-165.451Z" transform="translate(4122.402 1287.824)"/><path class="cls-2" d="M-2604.6-238.578c5.7,16.64-4.2,17.794-14.732,19.563-40.344,6.775-78.341-2.526-116.132-15.3-15.98-5.4-32.463-10.252-49.1-12.47-12.9-1.72-11.44-7.633-8.972-19.323,14.622,3.308,28.656,6.013,42.424,9.707,20.9,5.609,41.847,11.229,62.359,18.083,24.775,8.278,49.394,2.063,74.093,1.073C-2611.483-237.373-2608.326-238.069-2604.6-238.578Z" transform="translate(4122.402 1287.824)"/><path class="cls-18" d="M-2832.732-88.185c-5.126-12.228-1.852-17.628,9.317-19.112,25.1-3.335,49.731-1.917,73.85,6.159,8.933,2.991,17.707,7.01,26.89,8.562,12.581,2.126,13.911,8.854,10.406,20.346C-2751.734-84.917-2790.83-99.523-2832.732-88.185Z" transform="translate(4122.402 1287.824)"/><path class="cls-18" d="M-3133.311-82.725c12.747.9,24.89,1.634,37.01,2.64,28.764,2.387,56.134-3.73,83.1-12.983,28.59-9.81,57.35-18.97,88.307-15.526,3.276.364,6.765-.228,9.854.665,6.909,2,16.714,2.327,14.191,13.371-2.379,10.414-10.115,4.374-15.954,3.685-25.705-3.033-50.516.674-75.225,8.214-24.685,7.533-49.585,15.4-74.978,19.227-18.6,2.8-38.157-.518-57.269-1.472C-3135.217-65.449-3137.627-71.635-3133.311-82.725Z" transform="translate(4122.402 1287.824)"/><path class="cls-2" d="M-2903.132-204.333c-47.958-12.767-90.988,6.551-134.92,19.487-30.178,8.887-60.514,6.609-90.8,2.01-3.258-.495-5.445-8.041-9.889-15.12,8.382-.531,12.578-1.651,16.412-.908,39.111,7.574,76.492.405,113.679-11.635,19.136-6.2,38.782-11.829,58.629-14.474,13.927-1.855,28.738.931,42.8,3.533,3.518.651,5.689,8.585,8.478,13.171Z" transform="translate(4122.402 1287.824)"/><path class="cls-18" d="M-3133.468-238.484c16.389,1.671,31.866,5.292,47.035,4.285,19.458-1.293,38.866-5.471,57.93-9.956,18.726-4.407,36.681-12.829,55.55-15.685,20.1-3.042,40.884-2.2,61.33-1.63,3.766.105,7.344,6.984,11.008,10.736-4.386,2-9.346,6.475-13.07,5.612-30.881-7.153-59.411,2.187-88.513,10.173a777.129,777.129,0,0,1-80.745,18.066c-12.609,2.049-26.141-1.3-39.224-2.534C-3133.21-220.456-3138.276-225.766-3133.468-238.484Z" transform="translate(4122.402 1287.824)"/><path class="cls-2" d="M-3134.294-279.02c50.431,14.566,96.752.917,142.878-14.836,25.64-8.757,51.808-14.332,78.751-6.966,4.613,1.261,8.066,6.765,12.054,10.309-4.326,2.109-9.219,6.757-12.892,5.937-41.178-9.192-77.929,7.946-115.17,19.67-32.415,10.2-64.593,10.255-97.482,6.072C-3137.862-260.324-3135.331-268.291-3134.294-279.02Z" transform="translate(4122.402 1287.824)"/><path class="cls-2" d="M-3133.5-123.127c42.941,10.217,83.184,5.018,122.96-9.357,26.044-9.413,52.549-18.247,81.03-15.648,7.459.681,15.172,1.132,22.133,3.531,3.065,1.056,5.35,6.525,6.282,10.4.31,1.29-5.183,5.991-7.2,5.532-54.1-12.313-100.578,18.709-151.12,25.728-21.879,3.039-44.727-.043-67.06-1.493C-3137.45-105.144-3136.153-113.418-3133.5-123.127Z" transform="translate(4122.402 1287.824)"/><path class="cls-2" d="M-3132.443-315.8c10.684,1.093,21.386,2.029,32.048,3.307,38.886,4.658,74.245-9.7,110.2-20.523,24.5-7.371,48.9-13.126,74.772-7.849,10.522,2.146,18.617,4.631,12.957,19.46-5.573-.789-11.467-1.19-17.151-2.5-27.047-6.249-52.162,2.328-77.248,10.137-33.3,10.367-66.275,22.045-102.077,18.268-9.808-1.035-19.932-.871-29.291-3.481-3.76-1.049-5.851-8.083-8.7-12.394Z" transform="translate(4122.402 1287.824)"/><path class="cls-18" d="M-2937.821-381.73c10.183,1.42,20.549,2.137,30.44,4.692,2.94.76,5.566,6.5,6.237,10.332.251,1.436-6.013,6.163-8.38,5.587-42.431-10.329-80.424,7.317-119.537,18.134a425.391,425.391,0,0,1-42.391,9.852c-5.776.976-14.739,4.714-16.014-7.293-1.22-11.5,5.834-10.512,13.858-11.841,20.24-3.353,40.3-7.961,60.257-12.8,24.895-6.041,49.61-12.821,74.4-19.282Q-2938.384-383.04-2937.821-381.73Z" transform="translate(4122.402 1287.824)"/><path class="cls-2" d="M-2984.521-179.829c3.869,11.97,1.844,17.78-9.424,20.51-20.943,5.075-41.245,14.134-62.395,16.658-23.438,2.8-47.541.443-71.314-.582-2.658-.115-5.058-6.181-7.577-9.488,3.23-2.282,6.442-6.456,9.693-6.486,9.307-.085,18.634,1.473,27.946,2.452,33.8,3.554,64.849-7.993,96.254-17.555C-2996.045-175.932-2990.818-177.759-2984.521-179.829Z" transform="translate(4122.402 1287.824)"/></svg>